<svg xmlns="http://www.w3.org/2000/svg" xmlns:xlink="http://www.w3.org/1999/xlink" width="187" zoomAndPan="magnify" viewBox="0 0 140.25 30.000001" height="40" preserveAspectRatio="xMidYMid meet" version="1.0"><defs><g/></defs><g fill="#5e17eb" fill-opacity="1"><g transform="translate(8.264008, 27.553712)"><g><path d="M 8.046875 0 C 7.203125 0 6.535156 -0.00390625 6.046875 -0.015625 C 5.554688 -0.0351562 5.171875 -0.0546875 4.890625 -0.078125 C 4.617188 -0.109375 4.410156 -0.128906 4.265625 -0.140625 C 4.117188 -0.148438 3.96875 -0.179688 3.8125 -0.234375 C 3.25 -0.390625 2.789062 -0.644531 2.4375 -1 C 2.082031 -1.363281 1.796875 -1.894531 1.578125 -2.59375 C 1.367188 -3.289062 1.222656 -4.195312 1.140625 -5.3125 C 1.066406 -6.425781 1.03125 -7.828125 1.03125 -9.515625 L 1.03125 -17.96875 C 1.03125 -18.363281 1.039062 -18.804688 1.0625 -19.296875 C 1.09375 -19.785156 1.128906 -20.265625 1.171875 -20.734375 C 1.210938 -21.210938 1.25 -21.65625 1.28125 -22.0625 C 1.320312 -22.476562 1.367188 -22.804688 1.421875 -23.046875 C 1.609375 -23.960938 1.90625 -24.664062 2.3125 -25.15625 C 2.726562 -25.644531 3.304688 -26 4.046875 -26.21875 C 4.203125 -26.238281 4.363281 -26.257812 4.53125 -26.28125 C 4.707031 -26.3125 4.929688 -26.335938 5.203125 -26.359375 C 5.484375 -26.390625 5.847656 -26.410156 6.296875 -26.421875 C 6.753906 -26.441406 7.335938 -26.453125 8.046875 -26.453125 L 14.671875 -26.453125 L 14.671875 -20.703125 L 8.125 -20.703125 L 8.125 -16.09375 L 14.671875 -16.09375 L 14.671875 -10.34375 L 8.125 -10.34375 L 8.125 -5.75 L 14.671875 -5.75 L 14.671875 0 Z M 8.046875 0 "/></g></g></g><g fill="#5e17eb" fill-opacity="1"><g transform="translate(23.964799, 27.553712)"><g><path d="M 0.671875 -5.75 L 7.296875 -5.75 L 7.296875 -10.34375 L 6.1875 -10.34375 C 4.8125 -10.34375 3.78125 -10.460938 3.09375 -10.703125 C 2.40625 -10.941406 1.875 -11.378906 1.5 -12.015625 C 1.320312 -12.304688 1.171875 -12.609375 1.046875 -12.921875 C 0.929688 -13.242188 0.832031 -13.613281 0.75 -14.03125 C 0.675781 -14.457031 0.625 -14.960938 0.59375 -15.546875 C 0.570312 -16.128906 0.5625 -16.816406 0.5625 -17.609375 L 0.5625 -19.234375 C 0.5625 -22.515625 1.101562 -24.613281 2.1875 -25.53125 C 2.414062 -25.71875 2.65625 -25.878906 2.90625 -26.015625 C 3.164062 -26.148438 3.492188 -26.242188 3.890625 -26.296875 C 4.285156 -26.347656 4.789062 -26.382812 5.40625 -26.40625 C 6.03125 -26.4375 6.816406 -26.453125 7.765625 -26.453125 L 13.875 -26.453125 L 13.875 -20.703125 L 7.65625 -20.703125 L 7.65625 -16.09375 L 8.921875 -16.09375 C 10.054688 -16.09375 10.992188 -15.992188 11.734375 -15.796875 C 12.472656 -15.597656 13.054688 -15.234375 13.484375 -14.703125 C 13.910156 -14.179688 14.203125 -13.460938 14.359375 -12.546875 C 14.515625 -11.640625 14.59375 -10.484375 14.59375 -9.078125 L 14.59375 -7.453125 C 14.59375 -5.867188 14.5 -4.585938 14.3125 -3.609375 C 14.125 -2.628906 13.832031 -1.890625 13.4375 -1.390625 C 13.070312 -0.941406 12.65625 -0.609375 12.1875 -0.390625 C 11.726562 -0.179688 11.101562 -0.0507812 10.3125 0 L 0.671875 0 Z M 0.671875 -5.75 "/></g></g></g><g fill="#5e17eb" fill-opacity="1"><g transform="translate(39.070863, 27.553712)"><g><path d="M 3.21875 -20.703125 L 0 -20.703125 L 0 -26.453125 L 13.515625 -26.453125 L 13.515625 -20.703125 L 10.3125 -20.703125 L 10.3125 0 L 3.21875 0 Z M 3.21875 -20.703125 "/></g></g></g><g fill="#5e17eb" fill-opacity="1"><g transform="translate(52.590989, 27.553712)"><g><path d="M 8.046875 0 C 7.203125 0 6.535156 -0.00390625 6.046875 -0.015625 C 5.554688 -0.0351562 5.171875 -0.0546875 4.890625 -0.078125 C 4.617188 -0.109375 4.410156 -0.128906 4.265625 -0.140625 C 4.117188 -0.148438 3.96875 -0.179688 3.8125 -0.234375 C 3.25 -0.390625 2.789062 -0.644531 2.4375 -1 C 2.082031 -1.363281 1.796875 -1.894531 1.578125 -2.59375 C 1.367188 -3.289062 1.222656 -4.195312 1.140625 -5.3125 C 1.066406 -6.425781 1.03125 -7.828125 1.03125 -9.515625 L 1.03125 -17.96875 C 1.03125 -18.363281 1.039062 -18.804688 1.0625 -19.296875 C 1.09375 -19.785156 1.128906 -20.265625 1.171875 -20.734375 C 1.210938 -21.210938 1.25 -21.65625 1.28125 -22.0625 C 1.320312 -22.476562 1.367188 -22.804688 1.421875 -23.046875 C 1.609375 -23.960938 1.90625 -24.664062 2.3125 -25.15625 C 2.726562 -25.644531 3.304688 -26 4.046875 -26.21875 C 4.203125 -26.238281 4.363281 -26.257812 4.53125 -26.28125 C 4.707031 -26.3125 4.929688 -26.335938 5.203125 -26.359375 C 5.484375 -26.390625 5.847656 -26.410156 6.296875 -26.421875 C 6.753906 -26.441406 7.335938 -26.453125 8.046875 -26.453125 L 14.671875 -26.453125 L 14.671875 -20.703125 L 8.125 -20.703125 L 8.125 -16.09375 L 14.671875 -16.09375 L 14.671875 -10.34375 L 8.125 -10.34375 L 8.125 -5.75 L 14.671875 -5.75 L 14.671875 0 Z M 8.046875 0 "/></g></g></g><g fill="#5e17eb" fill-opacity="1"><g transform="translate(68.29178, 27.553712)"><g><path d="M 1.265625 -26.453125 L 13 -26.453125 C 14.0625 -26.453125 14.941406 -26.367188 15.640625 -26.203125 C 16.335938 -26.046875 16.890625 -25.753906 17.296875 -25.328125 C 17.710938 -24.910156 18 -24.351562 18.15625 -23.65625 C 18.320312 -22.957031 18.40625 -22.066406 18.40625 -20.984375 L 18.40625 -19.59375 C 18.40625 -18.769531 18.382812 -18.066406 18.34375 -17.484375 C 18.300781 -16.898438 18.226562 -16.394531 18.125 -15.96875 C 18.019531 -15.550781 17.878906 -15.203125 17.703125 -14.921875 C 17.535156 -14.648438 17.332031 -14.410156 17.09375 -14.203125 C 16.90625 -14.035156 16.71875 -13.898438 16.53125 -13.796875 C 16.351562 -13.691406 16.117188 -13.597656 15.828125 -13.515625 C 15.535156 -13.441406 15.179688 -13.363281 14.765625 -13.28125 C 14.359375 -13.207031 13.851562 -13.113281 13.25 -13 C 13.957031 -12.84375 14.550781 -12.695312 15.03125 -12.5625 C 15.507812 -12.4375 15.90625 -12.304688 16.21875 -12.171875 C 16.53125 -12.035156 16.785156 -11.878906 16.984375 -11.703125 C 17.191406 -11.535156 17.382812 -11.335938 17.5625 -11.109375 C 18.125 -10.304688 18.40625 -9.0625 18.40625 -7.375 L 18.40625 -5.703125 C 18.40625 -3.304688 18.035156 -1.695312 17.296875 -0.875 C 17.128906 -0.6875 16.953125 -0.539062 16.765625 -0.4375 C 16.585938 -0.332031 16.359375 -0.242188 16.078125 -0.171875 C 15.804688 -0.109375 15.460938 -0.0625 15.046875 -0.03125 C 14.640625 -0.0078125 14.128906 0 13.515625 0 L 1.265625 0 Z M 8.375 -20.625 L 8.375 -16.0625 L 9.671875 -16.0625 C 10.804688 -16.0625 11.375 -16.75 11.375 -18.125 C 11.375 -19.019531 11.242188 -19.660156 10.984375 -20.046875 C 10.722656 -20.429688 10.273438 -20.625 9.640625 -20.625 Z M 9.40625 -5.703125 C 10.082031 -5.703125 10.578125 -5.867188 10.890625 -6.203125 C 11.210938 -6.535156 11.375 -7.085938 11.375 -7.859375 C 11.375 -8.773438 11.234375 -9.40625 10.953125 -9.75 C 10.679688 -10.09375 10.164062 -10.265625 9.40625 -10.265625 L 8.375 -10.265625 L 8.375 -5.703125 Z M 9.40625 -5.703125 "/></g></g></g><g fill="#5e17eb" fill-opacity="1"><g transform="translate(87.521287, 27.553712)"><g><path d="M 1.265625 -21.0625 C 1.265625 -22.21875 1.363281 -23.144531 1.5625 -23.84375 C 1.757812 -24.550781 2.070312 -25.085938 2.5 -25.453125 C 2.925781 -25.828125 3.582031 -26.085938 4.46875 -26.234375 C 5.351562 -26.378906 6.664062 -26.453125 8.40625 -26.453125 L 11.296875 -26.453125 C 13.046875 -26.453125 14.363281 -26.378906 15.25 -26.234375 C 16.132812 -26.085938 16.785156 -25.828125 17.203125 -25.453125 C 17.628906 -25.085938 17.941406 -24.550781 18.140625 -23.84375 C 18.335938 -23.144531 18.4375 -22.21875 18.4375 -21.0625 L 18.4375 0 L 11.34375 0 L 11.34375 -5.59375 L 8.375 -5.59375 L 8.375 0 L 1.265625 0 Z M 11.34375 -11.453125 L 11.34375 -18.4375 C 11.34375 -20.082031 10.835938 -20.90625 9.828125 -20.90625 C 8.859375 -20.90625 8.375 -20.082031 8.375 -18.4375 L 8.375 -11.453125 Z M 11.34375 -11.453125 "/></g></g></g><g fill="#5e17eb" fill-opacity="1"><g transform="translate(107.266228, 27.553712)"><g><path d="M 1.3125 -20.421875 C 1.3125 -21.054688 1.300781 -21.617188 1.28125 -22.109375 C 1.269531 -22.597656 1.238281 -23.070312 1.1875 -23.53125 C 1.132812 -24 1.0625 -24.460938 0.96875 -24.921875 C 0.875 -25.390625 0.765625 -25.898438 0.640625 -26.453125 L 7.8125 -26.453125 C 7.914062 -26.054688 8.003906 -25.710938 8.078125 -25.421875 C 8.160156 -25.128906 8.222656 -24.859375 8.265625 -24.609375 C 8.304688 -24.359375 8.347656 -24.101562 8.390625 -23.84375 C 8.429688 -23.59375 8.460938 -23.296875 8.484375 -22.953125 C 8.671875 -23.640625 8.882812 -24.207031 9.125 -24.65625 C 9.363281 -25.113281 9.660156 -25.472656 10.015625 -25.734375 C 10.367188 -26.003906 10.816406 -26.191406 11.359375 -26.296875 C 11.898438 -26.398438 12.554688 -26.453125 13.328125 -26.453125 C 14.015625 -26.453125 14.59375 -26.425781 15.0625 -26.375 C 15.539062 -26.320312 15.953125 -26.210938 16.296875 -26.046875 C 16.640625 -25.890625 16.921875 -25.6875 17.140625 -25.4375 C 17.367188 -25.1875 17.59375 -24.863281 17.8125 -24.46875 C 17.9375 -24.207031 18.035156 -23.972656 18.109375 -23.765625 C 18.191406 -23.566406 18.253906 -23.265625 18.296875 -22.859375 C 18.335938 -22.453125 18.359375 -21.863281 18.359375 -21.09375 C 18.359375 -20.332031 18.359375 -19.25 18.359375 -17.84375 L 18.359375 0 L 11.265625 0 L 11.265625 -18.28125 C 11.265625 -19.6875 10.785156 -20.390625 9.828125 -20.390625 C 8.878906 -20.390625 8.40625 -19.660156 8.40625 -18.203125 L 8.40625 0 L 1.3125 0 Z M 1.3125 -20.421875 "/></g></g></g></svg>